<svg xmlns="http://www.w3.org/2000/svg" width="1600" height="1000" viewBox="0 0 1600 1000" fill="none">
  <rect width="1600" height="1000" rx="28" fill="#F8FAFC"/>
  <rect x="48" y="48" width="1504" height="904" rx="20" fill="#FFFFFF" stroke="#E2E8F0" stroke-width="4"/>
  <rect x="96" y="96" width="260" height="44" rx="10" fill="#CBD5E1"/>
  <rect x="96" y="170" width="1408" height="56" rx="12" fill="#EFF6FF"/>
  <g fill="#E2E8F0">
    <rect x="96" y="252" width="188" height="620" rx="14"/>
    <rect x="306" y="252" width="188" height="620" rx="14"/>
    <rect x="516" y="252" width="188" height="620" rx="14"/>
    <rect x="726" y="252" width="188" height="620" rx="14"/>
    <rect x="936" y="252" width="188" height="620" rx="14"/>
    <rect x="1146" y="252" width="188" height="620" rx="14"/>
    <rect x="1356" y="252" width="148" height="620" rx="14"/>
  </g>
  <g fill="#38BDF8">
    <rect x="112" y="302" width="156" height="96" rx="10"/>
    <rect x="322" y="420" width="156" height="88" rx="10"/>
    <rect x="532" y="338" width="156" height="126" rx="10"/>
    <rect x="952" y="520" width="156" height="102" rx="10"/>
    <rect x="1162" y="470" width="156" height="110" rx="10"/>
  </g>
  <text x="120" y="930" fill="#475569" font-family="Arial, sans-serif" font-size="30">Weekplanner Placeholder</text>
</svg>
